# xmcd
#
# Track frame offsets:
#	150
#	10248
#	29526
#	52094
#	77209
#	80679
#	101352
#	120924
#	124676
#	139487
#	160442
#	181294
#	200086
#	220478
#	224537
#
# Disc length: 3167 seconds
#
# Revision: 83178757
# Processed by: cddbd v1.5.1PL0 Copyright (c) Steve Scherf et al.
# Submitted via: EasyCDDAExtractor 8.0.2.1
#
DISCID=e10c5d0f
DTITLE=Lil' Kim - Hard Core
DYEAR=1996
DGENRE=Rap
TTITLE0=Intro In A-Minor [Intro]
TTITLE1=Big Momma Thang (Featuring Sylvester and Jay-Z)
TTITLE2=No Time (Featuring Sean Combs, Mase and The Notorius B.I.G.)
TTITLE3=Spend A Little Doe (Featuring Big Troy and Fela)
TTITLE4=Take It' (Featuring Lil' Cease, Trife and The Notorius B.I.G.)
TTITLE5=Crush On You (Featuring The Notorius B.I.G.)
TTITLE6=Drugs (Featuring The Notorius B.I.G.)
TTITLE7=Scheamin'
TTITLE8=Queen B@$#h
TTITLE9=Dreams (Featuring Adilah)
TTITLE10=M.A.F.I.A. Land
TTITLE11=We Don't Need It (Featuring Junior M.A.F.I.A.)
TTITLE12=Not Tonight (Featuring Jermaine Dupri)
TTITLE13=Player Haters
TTITLE14=**** You (Featuring The Notorius B.I.G.)
EXTD=YEAR: 1996
EXTT0=
EXTT1=
EXTT2=
EXTT3=
EXTT4=
EXTT5=
EXTT6=
EXTT7=
EXTT8=
EXTT9=
EXTT10=
EXTT11=
EXTT12=
EXTT13=
EXTT14=
PLAYORDER=
